<svg width="16" height="17" viewBox="0 0 16 17" fill="none" xmlns="http://www.w3.org/2000/svg">
<path d="M10.3359 11.8333C10.6012 11.8333 10.8555 11.9387 11.043 12.1262C11.2306 12.3138 11.3359 12.5681 11.3359 12.8333C11.3359 13.0985 11.2306 13.3529 11.043 13.5404C10.8555 13.728 10.6012 13.8333 10.3359 13.8333C10.0707 13.8333 9.81637 13.728 9.62883 13.5404C9.44129 13.3529 9.33594 13.0985 9.33594 12.8333C9.33594 12.5681 9.44129 12.3138 9.62883 12.1262C9.81637 11.9387 10.0707 11.8333 10.3359 11.8333ZM10.3359 7.16667C10.6012 7.16667 10.8555 7.27202 11.043 7.45956C11.2306 7.6471 11.3359 7.90145 11.3359 8.16667C11.3359 8.43188 11.2306 8.68624 11.043 8.87377C10.8555 9.06131 10.6012 9.16667 10.3359 9.16667C10.0707 9.16667 9.81637 9.06131 9.62883 8.87377C9.44129 8.68624 9.33594 8.43188 9.33594 8.16667C9.33594 7.90145 9.44129 7.6471 9.62883 7.45956C9.81637 7.27202 10.0707 7.16667 10.3359 7.16667ZM10.3359 2.5C10.6012 2.5 10.8555 2.60536 11.043 2.79289C11.2306 2.98043 11.3359 3.23478 11.3359 3.5C11.3359 3.76522 11.2306 4.01957 11.043 4.20711C10.8555 4.39464 10.6012 4.5 10.3359 4.5C10.0707 4.5 9.81637 4.39464 9.62883 4.20711C9.44129 4.01957 9.33594 3.76522 9.33594 3.5C9.33594 3.23478 9.44129 2.98043 9.62883 2.79289C9.81637 2.60536 10.0707 2.5 10.3359 2.5Z" fill="#667085"/>
</svg>
