<svg width="20" height="20" viewBox="0 0 20 20" fill="none" xmlns="http://www.w3.org/2000/svg">
<path fill-rule="evenodd" clip-rule="evenodd" d="M19.5002 10.2778C18.4113 6.18042 14.5708 3.15283 10.0001 3.15283C5.42945 3.15283 1.58892 6.18042 0.5 10.2778C1.58892 14.3753 5.42945 17.4028 10.0001 17.4028C14.5708 17.4028 18.4113 14.3753 19.5002 10.2778ZM2.19936 10.2778C3.24083 13.4905 6.34143 15.8195 9.99991 15.8195C13.6583 15.8195 16.759 13.4905 17.8004 10.2778C16.759 7.06514 13.6583 4.73617 9.99991 4.73617C6.34143 4.73617 3.24083 7.06514 2.19936 10.2778ZM9.99992 13.4445C11.7488 13.4445 13.1666 12.0267 13.1666 10.2778C13.1666 8.52893 11.7488 7.11117 9.99992 7.11117C8.251 7.11117 6.83324 8.52893 6.83324 10.2778C6.83324 12.0267 8.251 13.4445 9.99992 13.4445ZM9.99992 11.8612C10.8743 11.8612 11.5833 11.1523 11.5833 10.2778C11.5833 9.40336 10.8743 8.6945 9.99992 8.6945C9.12545 8.6945 8.41657 9.40336 8.41657 10.2778C8.41657 11.1523 9.12545 11.8612 9.99992 11.8612Z" fill="#4FAAC1"/>
</svg>
