<svg width="13" height="13" viewBox="0 0 13 13" fill="none" xmlns="http://www.w3.org/2000/svg">
<path d="M3.12118 6.20015L5.39737 3.343C5.43666 3.29409 5.48524 3.25342 5.54031 3.22333C5.59537 3.19325 5.65584 3.17435 5.71823 3.16771C5.78063 3.16107 5.84372 3.16683 5.90388 3.18466C5.96404 3.20248 6.02009 3.23202 6.0688 3.27158C6.11771 3.31087 6.15838 3.35945 6.18846 3.41451C6.21855 3.46958 6.23745 3.53005 6.24409 3.59244C6.25073 3.65484 6.24497 3.71793 6.22714 3.77809C6.20932 3.83825 6.17978 3.8943 6.14022 3.943L4.10689 6.50015L6.24022 9.05729C6.28032 9.10541 6.31053 9.16096 6.32912 9.22078C6.34771 9.28059 6.35433 9.34348 6.34857 9.40585C6.34282 9.46822 6.32483 9.52884 6.29561 9.58424C6.2664 9.63965 6.22654 9.68874 6.17832 9.72872C6.09199 9.798 5.98423 9.83504 5.87356 9.83348C5.8036 9.83359 5.73448 9.81829 5.6711 9.78866C5.60773 9.75903 5.55166 9.71581 5.50689 9.66205L3.12594 6.80491C3.05523 6.72026 3.01609 6.61368 3.01523 6.50338C3.01436 6.39308 3.05181 6.2859 3.12118 6.20015Z" fill="#4FAAC1"/>
<path d="M8.73037 3.34302C8.80994 3.24135 8.92663 3.17546 9.05478 3.15983C9.18293 3.1442 9.31204 3.18012 9.41371 3.25969C9.51537 3.33925 9.58127 3.45595 9.5969 3.5841C9.61253 3.71225 9.57661 3.84136 9.49704 3.94302L7.4399 6.50016L9.57323 9.05255C9.61333 9.10067 9.64354 9.15622 9.66213 9.21603C9.68072 9.27584 9.68733 9.33874 9.68158 9.4011C9.67583 9.46347 9.65783 9.5241 9.62862 9.5795C9.5994 9.6349 9.55955 9.684 9.51133 9.72398C9.42565 9.79497 9.31783 9.83372 9.20656 9.8335C9.13661 9.83361 9.06748 9.81831 9.00411 9.78868C8.94074 9.75905 8.88467 9.71582 8.8399 9.66207L6.45894 6.80493C6.38891 6.71972 6.35062 6.61284 6.35062 6.50255C6.35062 6.39225 6.38891 6.28537 6.45894 6.20016L8.73037 3.34302Z" fill="#4FAAC1"/>
</svg>
