<svg width="13" height="13" viewBox="0 0 13 13" fill="none" xmlns="http://www.w3.org/2000/svg">
<path d="M9.72112 6.20015L7.44492 3.343C7.40563 3.29409 7.35705 3.25342 7.30198 3.22333C7.24692 3.19325 7.18645 3.17435 7.12406 3.16771C7.06166 3.16107 6.99857 3.16683 6.93841 3.18466C6.87825 3.20248 6.8222 3.23202 6.77349 3.27158C6.72457 3.31087 6.6839 3.35945 6.65382 3.41451C6.62374 3.46958 6.60483 3.53005 6.5982 3.59244C6.59156 3.65484 6.59732 3.71793 6.61514 3.77809C6.63297 3.83825 6.66251 3.8943 6.70206 3.943L8.7354 6.50015L6.60206 9.05729C6.56197 9.10541 6.53176 9.16096 6.51316 9.22078C6.49457 9.28059 6.48796 9.34348 6.49371 9.40585C6.49946 9.46822 6.51746 9.52884 6.54667 9.58424C6.57589 9.63965 6.61575 9.68874 6.66397 9.72872C6.75029 9.798 6.85805 9.83504 6.96873 9.83348C7.03869 9.83359 7.10781 9.81829 7.17118 9.78866C7.23456 9.75903 7.29063 9.71581 7.3354 9.66205L9.71636 6.80491C9.78707 6.72026 9.8262 6.61368 9.82707 6.50338C9.82794 6.39308 9.79049 6.2859 9.72112 6.20015Z" fill="#4FAAC1"/>
<path d="M4.11142 3.34302C4.03186 3.24135 3.91517 3.17546 3.78702 3.15983C3.65887 3.1442 3.52976 3.18012 3.42809 3.25969C3.32642 3.33925 3.26053 3.45595 3.2449 3.5841C3.22927 3.71225 3.26519 3.84136 3.34476 3.94302L5.4019 6.50016L3.26857 9.05255C3.22847 9.10067 3.19826 9.15622 3.17967 9.21603C3.16107 9.27584 3.15446 9.33874 3.16021 9.4011C3.16596 9.46347 3.18396 9.5241 3.21318 9.5795C3.24239 9.6349 3.28225 9.684 3.33047 9.72398C3.41614 9.79497 3.52397 9.83372 3.63523 9.8335C3.70519 9.83361 3.77431 9.81831 3.83769 9.78868C3.90106 9.75905 3.95713 9.71582 4.0019 9.66207L6.38285 6.80493C6.45289 6.71972 6.49118 6.61284 6.49118 6.50255C6.49118 6.39225 6.45289 6.28537 6.38285 6.20016L4.11142 3.34302Z" fill="#4FAAC1"/>
</svg>
