<svg width="4" height="7" viewBox="0 0 4 7" fill="none" xmlns="http://www.w3.org/2000/svg">
<path d="M1.01718 0.342777C0.93762 0.241111 0.820927 0.175215 0.692777 0.159587C0.564627 0.143959 0.435517 0.179879 0.333851 0.259444C0.232185 0.339009 0.166289 0.455702 0.150661 0.583852C0.135033 0.712001 0.170953 0.841111 0.250518 0.942777L2.30766 3.49992L0.174327 6.0523C0.134231 6.10042 0.104021 6.15598 0.0854287 6.21579C0.0668361 6.2756 0.0602256 6.33849 0.065976 6.40086C0.0717264 6.46323 0.0897247 6.52385 0.11894 6.57926C0.148155 6.63466 0.188014 6.68376 0.236232 6.72373C0.321904 6.79472 0.429731 6.83347 0.540994 6.83325C0.610951 6.83337 0.680075 6.81807 0.743448 6.78844C0.806821 6.75881 0.862888 6.71558 0.907661 6.66183L3.28861 3.80468C3.35865 3.71948 3.39694 3.6126 3.39694 3.5023C3.39694 3.392 3.35865 3.28513 3.28861 3.19992L1.01718 0.342777Z" fill="#4FAAC1"/>
</svg>
