<svg width="5" height="7" viewBox="0 0 5 7" fill="none" xmlns="http://www.w3.org/2000/svg">
<path d="M3.30167 0.342777C3.38123 0.241111 3.49792 0.175215 3.62607 0.159587C3.75422 0.143959 3.88333 0.179879 3.985 0.259444C4.08666 0.339009 4.15256 0.455702 4.16819 0.583852C4.18381 0.712001 4.1479 0.841111 4.06833 0.942777L2.01119 3.49992L4.14452 6.0523C4.18462 6.10042 4.21483 6.15598 4.23342 6.21579C4.25201 6.2756 4.25862 6.33849 4.25287 6.40086C4.24712 6.46323 4.22912 6.52385 4.19991 6.57926C4.17069 6.63466 4.13083 6.68376 4.08262 6.72373C3.99694 6.79472 3.88912 6.83347 3.77785 6.83325C3.7079 6.83337 3.63877 6.81807 3.5754 6.78844C3.51203 6.75881 3.45596 6.71558 3.41119 6.66183L1.03024 3.80468C0.960202 3.71948 0.921913 3.6126 0.921913 3.5023C0.921913 3.392 0.960202 3.28513 1.03024 3.19992L3.30167 0.342777Z" fill="#4FAAC1"/>
</svg>
