<svg width="20" height="19" viewBox="0 0 20 19" fill="none" xmlns="http://www.w3.org/2000/svg">
<path d="M18.3125 4.15566V7.71833C18.3125 7.87581 18.2499 8.02683 18.1386 8.13819C18.0273 8.24954 17.8762 8.3121 17.7188 8.3121H14.1564C13.9989 8.3121 13.8479 8.24954 13.7365 8.13819C13.6252 8.02683 13.5626 7.87581 13.5626 7.71833C13.5626 7.56085 13.6252 7.40982 13.7365 7.29846C13.8479 7.18711 13.9989 7.12455 14.1564 7.12455H16.1899L14.2165 5.3165L14.1979 5.29868C13.3727 4.4737 12.3227 3.91018 11.179 3.67852C10.0354 3.44687 8.84889 3.55735 7.76769 3.99616C6.68649 4.43497 5.75854 5.18266 5.09977 6.14583C4.44101 7.10899 4.08063 8.24493 4.06365 9.41173C4.04668 10.5785 4.37386 11.7245 5.00433 12.7064C5.6348 13.6883 6.5406 14.4627 7.60858 14.9328C8.67656 15.4029 9.85936 15.5478 11.0092 15.3495C12.1591 15.1513 13.2251 14.6185 14.074 13.8179C14.1884 13.7096 14.3412 13.6513 14.4987 13.6557C14.6562 13.66 14.8055 13.7268 14.9137 13.8413C15.022 13.9557 15.0804 14.1085 15.076 14.266C15.0716 14.4235 15.0048 14.5728 14.8904 14.6811C13.5704 15.933 11.8194 16.6291 10.0002 16.625H9.90225C8.73536 16.609 7.59027 16.3066 6.56761 15.7444C5.54495 15.1822 4.67603 14.3774 4.03723 13.4007C3.39842 12.424 3.0093 11.3053 2.90404 10.143C2.79879 8.98066 2.98063 7.81028 3.43358 6.7347C3.88654 5.65912 4.59674 4.71128 5.50177 3.97448C6.4068 3.23768 7.47894 2.73448 8.62397 2.50911C9.769 2.28374 10.9519 2.3431 12.0686 2.68197C13.1853 3.02084 14.2017 3.62885 15.0284 4.45255L17.125 6.36748V4.15566C17.125 3.99818 17.1876 3.84715 17.2989 3.7358C17.4103 3.62444 17.5613 3.56189 17.7188 3.56189C17.8762 3.56189 18.0273 3.62444 18.1386 3.7358C18.2499 3.84715 18.3125 3.99818 18.3125 4.15566Z" fill="#FF1717" stroke="#FF1717" stroke-width="0.6"/>
</svg>
