<svg width="24" height="24" viewBox="0 0 24 24" fill="none" xmlns="http://www.w3.org/2000/svg">
<path d="M4.96878 11.9996C4.96878 8.61138 7.39735 5.83433 10.5938 5.17729V6.37453L14.8126 3.56204L10.5938 0.749512V2.2756C5.83207 2.96148 2.15625 7.05147 2.15625 11.9996C2.15625 14.9789 3.49223 17.6481 5.5906 19.4549L8.05308 17.8131C6.19356 16.5464 4.96878 14.414 4.96878 11.9996Z" fill="#111A2C"/>
<path d="M18.4095 4.54443L15.947 6.18622C17.8066 7.45281 19.0314 9.5853 19.0314 11.9997C19.0314 15.3921 16.6077 18.2067 13.4063 18.8629V17.6247L9.1875 20.4372L13.4063 23.2496V21.7292C18.1685 21.0432 21.8439 16.9482 21.8439 11.9997C21.8439 9.02035 20.5079 6.35118 18.4095 4.54443Z" fill="#111A2C"/>
</svg>
