<?xml version="1.0" encoding="UTF-8"?>
<svg version="1.1" xmlns="http://www.w3.org/2000/svg" width="2084" height="2084">
<path d="M0 0 C1.02625174 -0.00307895 1.02625174 -0.00307895 2.07323584 -0.0062201 C4.37068197 -0.01188409 6.66806803 -0.01043358 8.96551991 -0.00901413 C10.62755156 -0.01159814 12.2895826 -0.01461141 13.95161277 -0.01801753 C18.52320548 -0.02608716 23.09478249 -0.02787709 27.66638148 -0.028615 C32.59579523 -0.03046573 37.52520083 -0.0380134 42.45460987 -0.04475021 C53.23823521 -0.05833606 64.02185683 -0.06435928 74.8054893 -0.06876087 C81.54273066 -0.07152412 88.27997058 -0.07576175 95.01721096 -0.08026505 C113.67959694 -0.09246041 132.34198177 -0.10275765 151.00437164 -0.10614014 C152.19905048 -0.1063597 153.39372931 -0.10657927 154.62461053 -0.10680549 C155.8221257 -0.10702377 157.01964087 -0.10724204 158.25344437 -0.10746694 C160.67999661 -0.1079104 163.10654885 -0.10835696 165.53310108 -0.10880661 C166.73675097 -0.10902804 167.94040086 -0.10924947 169.18052498 -0.10947761 C188.66140826 -0.11342122 208.14225403 -0.1308607 227.62312283 -0.15416613 C247.63588915 -0.17791395 267.64863668 -0.19034363 287.66141731 -0.19150805 C298.89274627 -0.19242314 310.12402643 -0.19813304 321.35534191 -0.21632767 C330.9246832 -0.23177531 340.49396062 -0.23682188 350.06331202 -0.22858956 C354.94044158 -0.22469889 359.81744271 -0.22553461 364.69455624 -0.23964691 C369.17154623 -0.25248205 373.64831254 -0.25110503 378.12530265 -0.2390562 C379.73313658 -0.23711564 381.34098689 -0.24010036 382.9487979 -0.24890056 C397.89371733 -0.32542957 412.61618635 1.34226713 426.79750538 6.31892776 C427.67269825 6.62008499 428.54789112 6.92124222 429.44960499 7.23152542 C446.77414385 13.40425434 460.75498191 23.57301973 474.11000538 36.13142776 C474.700396 36.65736526 475.29078663 37.18330276 475.89906788 37.72517776 C491.17448466 51.91466445 499.68092368 70.82152307 506.13100147 90.20271683 C527.26481104 153.42495613 559.65125803 212.61264062 605.52016163 261.35799026 C607.57126137 263.55449225 609.54507327 265.77584094 611.48500538 268.06892776 C618.72298976 276.4272881 626.77215365 284.3706608 635.21156788 291.51033401 C637.43900571 293.41236426 639.58023509 295.39750496 641.73500538 297.38142776 C647.38734375 302.47978504 653.344574 307.1398553 659.36928272 311.78474808 C660.98420749 313.03410642 662.58859231 314.2970565 664.19203663 315.56111526 C680.6595692 328.45610226 697.90436307 339.84350128 716.11000538 350.13142776 C717.02572315 350.64979202 717.94144093 351.16815628 718.88490772 351.70222855 C770.62913111 380.82832077 826.30256503 399.03447573 885.11000538 407.13142776 C886.82292774 407.37916946 886.82292774 407.37916946 888.5704546 407.63191605 C926.12104019 412.87847236 966.59368649 412.65261674 1004.11000538 407.13142776 C1005.34524952 406.95450394 1006.58049366 406.77758011 1007.85316944 406.59529495 C1059.05407551 399.09204904 1108.05055217 383.88396344 1154.06752491 360.17927933 C1156.19921652 359.08565987 1158.33997911 358.0111428 1160.48109913 356.93611526 C1188.71570841 342.59429591 1214.97593358 324.37170708 1238.99281788 303.77595901 C1241.81130294 301.36593748 1244.70390196 299.06025178 1247.61000538 296.75642776 C1252.61248537 292.70016466 1257.12697556 288.26207941 1261.60805225 283.64754105 C1264.62303056 280.55217593 1267.7218273 277.82488698 1271.11000538 275.13142776 C1272.24900454 273.9130826 1273.35530246 272.66313052 1274.42250538 271.38142776 C1276.83356656 268.55376854 1279.31549873 265.90351969 1281.98500538 263.31892776 C1285.8747109 259.48148316 1289.28693624 255.35950025 1292.70375538 251.10017776 C1294.77758732 248.54155395 1296.89820502 246.03389715 1299.0494585 243.54036331 C1316.34588778 223.42988126 1330.95289424 201.12536083 1344.11000538 178.13142776 C1344.65624561 177.17736038 1345.20248585 176.223293 1345.76527882 175.24031448 C1361.53172678 147.43542351 1373.92054527 118.09044566 1383.55141163 87.61970901 C1393.85617458 55.07298245 1415.97316993 28.84887653 1446.14516163 12.96736526 C1453.31601227 9.34508043 1460.56480141 6.44342153 1468.29750538 4.25642776 C1468.97265186 4.06532425 1469.64779835 3.87422073 1470.34340382 3.6773262 C1482.81878115 0.41799339 1495.27162093 -0.1634968 1508.08145618 -0.13599777 C1509.75482017 -0.13974237 1511.42818241 -0.14434709 1513.10154194 -0.14972842 C1517.66247085 -0.1618729 1522.22332595 -0.16170816 1526.78426731 -0.15933967 C1531.7175243 -0.15892934 1536.6507583 -0.16999079 1541.5840044 -0.1794548 C1551.23322858 -0.19601653 1560.88242831 -0.20156208 1570.53166551 -0.20267956 C1578.37638012 -0.20363191 1586.2210867 -0.20775152 1594.06579876 -0.21408081 C1616.32893414 -0.23167663 1638.59205029 -0.24092177 1660.85519267 -0.23941986 C1662.65279591 -0.23929999 1662.65279591 -0.23929999 1664.48671436 -0.2391777 C1665.68658629 -0.23909594 1666.88645821 -0.23901418 1668.1226899 -0.23892994 C1687.58052862 -0.23811653 1707.03829004 -0.25727236 1726.49610639 -0.28545444 C1746.49670737 -0.3141933 1766.49727065 -0.32799432 1786.4978928 -0.32626688 C1797.71832165 -0.32560355 1808.93866934 -0.33107195 1820.15907955 -0.35262299 C1829.70823497 -0.37084748 1839.25727239 -0.3751713 1848.80643768 -0.36160414 C1853.67494373 -0.35508221 1858.54322347 -0.35492961 1863.41170788 -0.37231064 C1867.87457104 -0.38807946 1872.33702913 -0.38513903 1876.79988264 -0.36774237 C1878.40803121 -0.36468097 1880.0162103 -0.36827222 1881.62432284 -0.37946253 C1895.12601049 -0.4671406 1907.33870588 1.35025408 1918.11000538 10.13142776 C1918.79707569 10.68314651 1919.484146 11.23486526 1920.19203663 11.80330276 C1929.4198491 20.06069519 1934.23797559 32.01588224 1935.28578663 44.17049026 C1935.9023303 60.46022303 1926.88151995 73.81871769 1917.48988819 86.29549026 C1916.06621748 88.18968767 1914.6612353 90.09672799 1913.25844288 92.00642776 C1903.98044527 104.5781608 1894.12577041 116.66650117 1883.98817921 128.5523262 C1881.17975944 131.84767527 1878.44323459 135.19102733 1875.73500538 138.56892776 C1871.10723321 144.26208633 1866.11609512 149.58185538 1861.09828663 154.92830276 C1858.90540284 157.26755868 1856.76169165 159.63595135 1854.67250538 162.06892776 C1850.76916072 166.59062405 1846.6663567 170.92538716 1842.58168507 175.28255081 C1839.16887094 178.92321675 1835.77526376 182.57947558 1832.4063921 186.2608223 C1827.33852728 191.79561773 1822.15089612 197.16131881 1816.77797413 202.40095901 C1814.81032844 204.41469889 1812.99633503 206.41853899 1811.17920399 208.55804825 C1806.16237779 214.30854298 1800.73307726 219.64821801 1795.33485889 225.03596878 C1794.15449701 226.21768806 1792.97434745 227.39961945 1791.79439259 228.58174515 C1788.60868265 231.77198915 1785.41984751 234.95909164 1782.23028016 238.14547849 C1778.88130695 241.49190721 1775.53478876 244.84078962 1772.18787098 248.18927383 C1766.56857895 253.81038147 1760.94719028 259.42938588 1755.32460499 265.04719925 C1748.83858137 271.52778142 1742.35616789 278.011958 1735.87561756 284.49801308 C1730.29592789 290.08225121 1724.71427872 295.66452513 1719.13100857 301.24518341 C1715.80317026 304.57146848 1712.47599749 307.89841172 1709.15059566 311.2271328 C1706.02312368 314.35750872 1702.89318628 317.48539909 1699.76138783 320.61144638 C1698.61734664 321.75417345 1697.47414041 322.89773719 1696.33186626 324.04223061 C1690.95311993 329.43045697 1685.56068997 334.7402143 1679.7721138 339.69404888 C1677.51014828 341.65017968 1675.39626471 343.73259962 1673.28969288 345.85408401 C1672.43520557 346.71187454 1671.58071827 347.56966507 1670.70033741 348.45344925 C1669.80427784 349.35780716 1668.90821827 350.26216507 1667.98500538 351.19392776 C1667.02941168 352.15394151 1666.07351354 353.1136523 1665.1173296 354.07307816 C1662.11202988 357.08969146 1659.11070926 360.11024373 1656.11000538 363.13142776 C1652.62707527 366.63812928 1649.14244036 370.14310243 1645.65352345 373.64384842 C1644.27347404 375.03028116 1642.89652794 376.41980075 1641.51967335 377.80940628 C1637.85369998 381.48955133 1634.1972843 385.11960204 1630.24672413 388.49470901 C1625.06945852 392.94189725 1620.31272755 397.81757846 1615.50810719 402.65816116 C1613.76025616 404.41895277 1612.00914566 406.1764464 1610.25722218 407.93318558 C1606.53864187 411.66310902 1602.82402334 415.39696213 1599.11000538 419.13142776 C1594.80099109 423.4641655 1590.49030161 427.79520929 1586.17534351 432.12202835 C1584.46291368 433.84086821 1582.75356026 435.56272588 1581.04433155 437.28474808 C1579.97913396 438.35358319 1578.91379289 439.42227536 1577.84828663 440.49080276 C1576.93087696 441.41344925 1576.01346729 442.33609573 1575.06825733 443.2867012 C1572.95575309 445.36274824 1570.76321439 447.30580884 1568.51260853 449.23080826 C1562.71262599 454.26430899 1557.35196958 459.74979915 1551.93007374 465.18196487 C1550.71879823 466.39188308 1549.50731059 467.60158894 1548.29562855 468.81110001 C1545.02480812 472.07738526 1541.75713033 475.34679727 1538.49016738 478.61694026 C1535.05965672 482.04999482 1531.62669302 485.48059504 1528.19412708 488.91159439 C1522.43178404 494.67212165 1516.67154453 500.43474603 1510.91249561 506.19856644 C1504.2683188 512.84818472 1497.62054738 519.49419307 1490.97089761 526.13833803 C1485.24653351 531.85815415 1479.52413297 537.57992924 1473.8033486 543.30332571 C1470.39322666 546.71500115 1466.98244583 550.12601052 1463.56988811 553.53524971 C1460.36071815 556.74151643 1457.15403216 559.95024748 1453.94919109 563.16084099 C1452.77743817 564.3339084 1451.60484791 565.50614013 1450.43132877 566.67744064 C1444.981173 572.11824709 1439.60295515 577.56645211 1434.59370232 583.42300129 C1432.33150116 586.02784886 1429.91629351 588.43668423 1427.46938038 590.86970901 C1426.95290943 591.3847197 1426.43643848 591.89973038 1425.9043169 592.43034744 C1424.79842868 593.53247204 1423.69138861 594.63344191 1422.58327198 595.73332596 C1420.82248038 597.48117698 1419.06498674 599.23228748 1417.30824757 600.98421097 C1412.94741947 605.33177727 1408.58112425 609.67383924 1404.21498585 614.01607132 C1400.51413466 617.69708456 1396.81541282 621.38021334 1393.11940479 625.06608963 C1391.40056494 626.77851947 1389.67870726 628.48787288 1387.95668507 630.19710159 C1383.08936948 635.04187814 1378.33652319 639.91913482 1373.87294483 645.1436348 C1370.05908733 649.44392946 1365.909713 653.43078246 1361.82875538 657.47517776 C1360.8463216 658.45319195 1359.8641905 659.43151028 1358.88234425 660.41011429 C1355.2728122 664.0064176 1351.65779832 667.59719372 1348.04292774 671.18812943 C1344.97619788 674.23498356 1341.91162624 677.28397903 1338.84976673 680.33572769 C1337.4300938 681.74901406 1336.00733539 683.15919887 1334.58449268 684.56929398 C1333.7066814 685.44380203 1332.82887012 686.31831009 1331.9244585 687.21931839 C1331.16169605 687.97684402 1330.3989336 688.73436966 1329.61305714 689.51485062 C1327.67891714 691.53671313 1325.85645143 693.57730147 1324.03931141 695.70013809 C1319.10508783 701.37663943 1313.74697549 706.63425774 1308.42665577 711.94417191 C1307.25614599 713.11603911 1306.08584853 714.28811842 1304.91574574 715.460392 C1301.75689423 718.62377718 1298.59491806 721.78402125 1295.43220925 724.94354939 C1292.11126316 728.2619508 1288.79277232 731.58280612 1285.47388172 734.90326309 C1279.90166811 740.47729226 1274.32735801 746.04921831 1268.75185108 751.61995316 C1262.32035902 758.04600378 1255.89247716 764.47564874 1249.46645838 770.90717226 C1243.93347753 776.44470174 1238.39853699 781.98026677 1232.86197561 787.51421636 C1229.56208301 790.81255581 1226.26285577 794.11155318 1222.96539974 797.41232872 C1219.86419268 800.51643997 1216.76051982 803.61806512 1213.65498638 806.71784782 C1212.5206206 807.85089961 1211.38708954 808.98478784 1210.25449085 810.11960602 C1204.90367817 815.47993093 1199.55356549 820.7886161 1193.77125168 825.69048595 C1190.89821497 828.18251782 1188.26443872 830.91079908 1185.61000538 833.63142776 C1181.62147732 837.71942036 1177.5158381 841.56677638 1173.19398975 845.30134964 C1169.57438876 848.47994958 1166.10055829 851.81254139 1162.61000538 855.13142776 C1157.78695386 859.71728003 1152.9202829 864.22133236 1147.89174366 868.58162308 C1145.66135496 870.52167617 1143.47922525 872.51193079 1141.29750538 874.50642776 C1137.00391906 878.38176519 1132.57912536 882.05364086 1128.08266163 885.69002151 C1125.37373221 887.91483214 1122.71324089 890.18273602 1120.06361866 892.47713089 C1112.59497517 898.94431126 1104.95132148 905.12287358 1097.11000538 911.13142776 C1096.37540089 911.6973262 1095.64079639 912.26322464 1094.88393116 912.84627151 C1077.10367807 926.50926294 1058.71952314 939.2243841 1039.11000538 950.13142776 C1038.30627491 950.58114944 1037.50254444 951.03087112 1036.6744585 951.49422073 C1021.05175593 960.16452138 1005.05147942 967.0288248 987.86000538 971.94392776 C987.2249004 972.12681351 986.58979542 972.30969925 985.93544483 972.49812698 C972.23603989 976.17602509 958.81032932 977.66110686 944.67250538 977.50642776 C943.52621662 977.4994487 943.52621662 977.4994487 942.35677052 977.49232864 C931.03639592 977.41168615 920.11441612 976.94953713 909.11000538 974.13142776 C907.91141895 973.8413887 907.91141895 973.8413887 906.68861866 973.54549026 C867.72139105 963.96810984 832.72813873 942.20176444 801.11000538 918.13142776 C799.94087952 917.24972508 798.77162028 916.36819921 797.60219288 915.48689651 C784.99149173 905.89718643 772.77061806 895.80557576 760.72963428 885.51277542 C759.05226142 884.08217915 757.36864721 882.65918214 755.68422413 881.23689651 C748.99464785 875.56959793 742.46119512 869.77128697 736.07899952 863.75886917 C733.15390511 861.00641052 730.19254579 858.31325977 727.16078663 855.67830276 C723.2452521 852.27163792 719.44642557 848.75614964 715.67250538 845.19392776 C714.26497463 843.86838428 712.85742182 842.54286421 711.44984913 841.21736526 C710.73296925 840.54157425 710.01608936 839.86578323 709.27748585 839.1695137 C707.1662768 837.18433988 705.04761557 835.20747553 702.92641163 833.23299026 C694.56212103 825.43087369 686.36998504 817.48903061 678.34877491 809.33333206 C677.6499419 808.62603958 676.95110889 807.9187471 676.23109913 807.19002151 C675.62709278 806.5744136 675.02308643 805.95880569 674.40077686 805.324543 C672.45497396 803.46169023 670.47043538 801.70531098 668.42973804 799.94917679 C664.36317958 796.39836556 660.51371038 792.6767022 656.70351124 788.85432816 C656.01132999 788.16389923 655.31914875 787.47347031 654.60599232 786.76211929 C652.34310806 784.50359754 650.08385605 782.24148341 647.82484913 779.97908401 C646.23894048 778.39385001 644.65288349 776.80876439 643.06668568 775.22381973 C639.75259397 771.91119742 636.44030499 768.59678591 633.12929249 765.28108597 C628.9007435 761.04684018 624.66772044 756.81710019 620.43333054 752.58869648 C617.16029893 749.31929099 613.88966835 746.04749191 610.61974239 742.77498055 C609.06047334 741.2150479 607.50047076 739.65584809 605.93970013 738.09741783 C603.75306247 735.91334048 601.56969092 733.72604728 599.38710499 731.53792191 C598.7515871 730.90442825 598.11606922 730.2709346 597.46129322 729.61824417 C593.72338721 725.86288398 590.1930995 721.98181894 586.72791862 717.97407055 C584.58480318 715.53327453 582.32396075 713.23294291 580.02016163 710.94392776 C579.5622121 710.48743851 579.10426258 710.03094925 578.6324358 709.56062698 C577.65423641 708.58618398 576.67488587 707.61289534 575.69444752 706.64070511 C574.13526811 705.09450037 572.57941917 703.5450088 571.02431202 701.99470901 C567.72237402 698.70409794 564.41650122 695.41745815 561.11000538 692.13142776 C557.27289062 688.31806272 553.43748863 684.50300628 549.60631275 680.68367386 C548.08691072 679.17066725 546.56448835 677.66074807 545.04189014 676.15095901 C540.50069082 671.63351961 536.11465862 667.05592604 531.94594288 662.19221878 C528.42604176 658.24122338 524.63625736 654.5501988 520.87964344 650.82590103 C519.35406561 649.31330445 517.83182452 647.79741575 516.31032276 646.28071976 C513.07971584 643.06143665 509.84517315 639.84612665 506.61000538 636.63142776 C502.85549411 632.90067127 499.10269925 629.16822025 495.35413074 625.43149185 C493.86796849 623.9517222 492.37878542 622.47504211 490.88942432 620.99849319 C489.51264515 619.62666885 489.51264515 619.62666885 488.10805225 618.22713089 C487.30976002 617.43407547 486.51146778 616.64102005 485.68898487 615.82393265 C483.70173213 613.74920203 481.82456596 611.65572362 479.9560051 609.47826862 C476.13832773 605.10448081 472.10527036 600.98706433 467.9950304 596.88946915 C467.20656835 596.0994471 466.4181063 595.30942506 465.60575145 594.49546295 C462.98136012 591.86710501 460.35343542 589.24230969 457.72548389 586.61751175 C455.83577042 584.72644231 453.94625248 582.8351793 452.05696583 580.94368362 C447.46858837 576.35087321 442.87752818 571.76075372 438.28548164 567.17161208 C434.55151674 563.43991095 430.81853559 559.70722837 427.08624554 555.97385216 C426.55385903 555.44131242 426.02147252 554.90877268 425.47295309 554.36009537 C424.39122645 553.27804899 423.30950205 552.19600037 422.22777986 551.11394954 C412.09830427 540.98162642 401.96577299 530.85236352 391.83218425 520.7241543 C383.14823342 512.04467085 374.46690769 503.36256899 365.78749561 494.67854691 C355.69407163 484.57976434 345.59901831 474.48261508 335.50138134 464.38804489 C334.4234458 463.31042789 333.34551234 462.2328088 332.26758099 461.15518761 C331.73729832 460.62505921 331.20701564 460.09493082 330.6606638 459.54873792 C326.93442092 455.82335635 323.20933531 452.09682004 319.48470211 448.36982918 C314.94197093 443.82428554 310.39744626 439.28054402 305.85065431 434.73906212 C303.53348174 432.42450709 301.21736953 430.10890893 298.90289593 427.79165459 C296.38822922 425.27424582 293.87048702 422.75995265 291.351964 420.24640274 C290.62908855 419.52129657 289.90621309 418.79619039 289.16143233 418.04911131 C285.17783397 414.08070247 281.0968072 410.28791219 276.82948154 406.62553173 C274.48662978 404.58975817 272.29288437 402.42673398 270.10609913 400.22517776 C268.76430592 398.87842972 268.76430592 398.87842972 267.39540577 397.50447464 C266.93151447 397.03646439 266.46762318 396.56845413 265.98967457 396.08626175 C264.51068629 394.59428534 263.02840036 393.10565223 261.54530811 391.61775589 C257.86553151 387.92474622 254.1912791 384.22625664 250.51686573 380.52791214 C247.39954909 377.39072473 244.2800945 374.25569175 241.15788746 371.12337112 C239.71135469 369.67044869 238.26791371 368.21450496 236.82460499 366.75838089 C233.02567709 362.94542471 229.23992128 359.17517174 225.151021 355.67244339 C220.33560565 351.54069811 215.89906299 347.03270692 211.4340868 342.53067398 C209.85427404 340.93789286 208.27117952 339.34843619 206.68727589 337.75972366 C202.75707879 333.8162816 198.83239766 329.8673649 194.90755177 325.91859818 C191.57884823 322.5700375 188.24801606 319.22362083 184.91443348 315.87991714 C183.36818983 314.32727539 181.82503157 312.77161374 180.28200245 311.21577835 C179.31792018 310.24805778 178.35369398 309.28048057 177.38930225 308.31306839 C176.56071705 307.47924637 175.73213184 306.64542435 174.878438 305.78633499 C172.706909 303.7038541 170.51087979 301.72291417 168.2372179 299.75665665 C164.26118062 296.3047306 160.51139157 292.67426055 156.79530811 288.94612503 C156.11288044 288.26544968 155.43045277 287.58477432 154.72734547 286.88347244 C152.49692719 284.65741575 150.27014037 282.42776806 148.04359913 280.19783401 C146.48011071 278.63502027 144.91647396 277.07235491 143.35269642 275.50983047 C140.08568319 272.24428651 136.82047246 268.97695378 133.55653858 265.70833206 C129.38852367 261.53462036 125.21603488 257.36541471 121.04217911 253.19754505 C117.81547046 249.97446286 114.5911633 246.7489867 111.36756039 243.52279854 C109.83061998 241.98519463 108.29294631 240.4483233 106.7545042 238.91222191 C104.59899915 236.75927773 102.44676152 234.6031171 100.29530811 232.44612503 C99.66914097 231.82198212 99.04297382 231.1978392 98.39783192 230.55478287 C94.65440746 226.79363146 91.10317815 222.91298428 87.64365959 218.88881969 C85.55729456 216.49808452 83.33827499 214.26437143 81.07875538 212.03767776 C80.18543507 211.15209183 79.29211475 210.26650589 78.37172413 209.35408401 C77.46035694 208.45560745 76.54898975 207.55713089 75.61000538 206.63142776 C70.07665107 201.17633872 64.63668582 195.72840173 59.5807085 189.82478714 C57.69246041 187.65066882 55.67620246 185.63594732 53.61000538 183.63142776 C50.3289717 180.38886517 47.25540541 177.06095755 44.25453663 173.56111526 C41.27551717 170.18597847 38.19038606 166.91393211 35.11000538 163.63142776 C30.34455746 158.54436622 25.63498943 153.4349037 21.11000538 148.13142776 C20.2235411 147.0986572 19.33679503 146.06612848 18.44984913 145.03377151 C16.39350317 142.63915513 14.3406707 140.24158038 12.28969288 137.84236526 C10.2202984 135.42321397 8.1422323 133.01204043 6.05531788 130.60799026 C-0.38316983 123.17688065 -6.57860436 115.59923079 -12.58726025 107.81648636 C-13.83335927 106.20468435 -15.08804207 104.59952951 -16.34311962 102.99470901 C-47.71229939 62.67013438 -47.71229939 62.67013438 -45.88999462 38.13142776 C-43.88011061 26.43047513 -37.02639481 15.33907114 -27.43296337 8.33845901 C-18.70657144 2.90959767 -10.31796996 0.01055385 0 0 Z " fill="#2E2C2D" transform="translate(97.88999462127686,1094.8685722351074)"/>
<path d="M0 0 C1.06863281 0.74378906 2.13726563 1.48757812 3.23828125 2.25390625 C22.38536636 15.7067623 40.59530812 30.41588952 58.37597656 45.61425781 C60.06714221 47.05729092 61.76374619 48.49374817 63.4609375 49.9296875 C70.50508898 55.90689729 77.36538114 62.04322667 84.125 68.33984375 C86.34528957 70.39421494 88.58217306 72.40336649 90.875 74.375 C96.70890167 79.4294242 102.29187258 84.76355535 107.91748047 90.046875 C110.0154429 92.01448338 112.1186242 93.97638516 114.22265625 95.9375 C121.90075217 103.10992667 129.47488343 110.35821721 136.828125 117.86499023 C139.68263427 120.76236613 142.58006712 123.53504175 145.67332458 126.17750549 C150.20275044 130.12230444 154.45143368 134.31081056 158.69165039 138.56225586 C159.52038162 139.38923477 160.34911285 140.21621368 161.20295715 141.06825256 C163.92036419 143.78128653 166.63412994 146.49792877 169.34765625 149.21484375 C171.24744838 151.11396153 173.14738776 153.01293108 175.04747009 154.91175842 C179.02083108 158.88330662 182.99209403 162.85694352 186.9621582 166.83178711 C191.53413667 171.40920647 196.10970609 175.9830126 200.68715674 180.55495924 C204.63659322 184.49983912 208.58405441 188.44668765 212.52990907 192.39515024 C214.87809849 194.74488847 217.22713288 197.09376913 219.57756233 199.44126701 C222.20005753 202.06120838 224.81930158 204.68435873 227.43774414 207.30834961 C228.20417236 208.0727536 228.97060059 208.83715759 229.76025391 209.62472534 C233.81367113 213.69398053 237.68249479 217.85842919 241.432868 222.20813847 C243.52705173 224.60263189 245.74171465 226.8541725 247.99804688 229.09570312 C248.91589966 230.01025269 249.83375244 230.92480225 250.77941895 231.86706543 C251.25823013 232.34175766 251.73704132 232.81644989 252.23036194 233.30552673 C253.75593977 234.81812332 255.27818086 236.33401202 256.79968262 237.85070801 C260.03028953 241.06999112 263.26483223 244.28530112 266.5 247.5 C270.25451127 251.2307565 274.00730613 254.96320751 277.75587463 258.69993591 C279.24203689 260.17970556 280.73121996 261.65638565 282.22058105 263.13293457 C286.70879577 267.60499684 291.03297938 272.12317287 295.15637207 276.93151855 C298.67961143 280.88446108 302.47112697 284.57863046 306.23036194 288.30552673 C307.75593977 289.81812332 309.27818086 291.33401202 310.79968262 292.85070801 C314.03028953 296.06999112 317.26483223 299.28530112 320.5 302.5 C324.25451127 306.2307565 328.00730613 309.96320751 331.75587463 313.69993591 C333.24203689 315.17970556 334.73121996 316.65638565 336.22058105 318.13293457 C337.13843384 319.04748413 338.05628662 319.96203369 339.00195312 320.90429688 C339.80024536 321.69735229 340.5985376 322.49040771 341.42102051 323.30749512 C343.41997309 325.3944406 345.31069358 327.50194511 347.19196415 329.69112301 C350.80979571 333.83623231 354.61173393 337.75182834 358.5075531 341.63453674 C359.23067832 342.35922195 359.95380353 343.08390715 360.69884163 343.83055252 C363.10212329 346.23779593 365.5089311 348.64148115 367.91577148 351.04516602 C369.64785106 352.77860177 371.37971807 354.51224993 373.11138916 356.24609375 C377.31492925 360.45371074 381.52079544 364.65899343 385.72782689 368.86311883 C389.1490539 372.28208106 392.56929583 375.70202588 395.98884773 379.1226635 C396.72081882 379.85486444 396.72081882 379.85486444 397.46757721 380.60185732 C398.45911184 381.5937117 399.45064425 382.58556832 400.44217444 383.57742714 C409.72468851 392.862788 419.01025672 402.14508976 428.29688413 411.42633646 C436.25312653 419.37811155 444.20674354 427.33250472 452.15844727 435.28881836 C461.40806723 444.54379823 470.65931805 453.79714292 479.91315132 463.04791015 C480.90121513 464.03565544 481.88927687 465.0234028 482.8773365 466.01115227 C483.36339341 466.4970549 483.84945031 466.98295753 484.35023622 467.48358448 C487.76389232 470.89637968 491.17639187 474.31032865 494.58843803 477.72473335 C499.18663612 482.32604021 503.78750101 486.92466976 508.39013672 491.52153778 C510.07599964 493.20608174 511.76101827 494.89147114 513.44511604 496.57777977 C515.74958674 498.88499598 518.05713667 501.18908933 520.36546326 503.4924469 C521.02608354 504.1552979 521.68670381 504.8181489 522.36734289 505.50108629 C526.2026483 509.32047011 530.15005394 512.95285072 534.25546175 516.48083395 C536.63760422 518.55523385 538.86997944 520.75762597 541.09570312 522.99804688 C542.01025269 523.91589966 542.92480225 524.83375244 543.86706543 525.77941895 C544.34175766 526.25823013 544.81644989 526.73704132 545.30552673 527.23036194 C546.81812332 528.75593977 548.33401202 530.27818086 549.85070801 531.79968262 C553.61395801 535.57616982 557.37168668 539.35813511 561.12957764 543.13995361 C564.31735668 546.34759868 567.50727042 549.55309295 570.69993591 552.75587463 C572.17970556 554.24203689 573.65638565 555.73121996 575.13293457 557.22058105 C578.99608001 561.09767962 582.84396898 564.93599919 587 568.5 C591.67122056 572.50580116 595.97506155 576.86232082 600.30552673 581.23036194 C601.81812332 582.75593977 603.33401202 584.27818086 604.85070801 585.79968262 C608.61395801 589.57616982 612.37168668 593.35813511 616.12957764 597.13995361 C619.31735668 600.34759868 622.50727042 603.55309295 625.69993591 606.75587463 C627.17970556 608.24203689 628.65638565 609.73121996 630.13293457 611.22058105 C631.04748413 612.13843384 631.96203369 613.05628662 632.90429688 614.00195312 C633.69735229 614.80024536 634.49040771 615.5985376 635.30749512 616.42102051 C637.42172608 618.44610812 639.56015275 620.36734981 641.7752533 622.27723694 C646.2739891 626.18497239 650.48498969 630.34445543 654.69165039 634.56225586 C655.52038162 635.38923477 656.34911285 636.21621368 657.20295715 637.06825256 C659.92036419 639.78128653 662.63412994 642.49792877 665.34765625 645.21484375 C667.24744838 647.11396153 669.14738776 649.01293108 671.04747009 650.91175842 C675.02083108 654.88330662 678.99209403 658.85694352 682.9621582 662.83178711 C687.53413667 667.40920647 692.10970609 671.9830126 696.68715674 676.55495924 C700.63659322 680.49983912 704.58405441 684.44668765 708.52990907 688.39515024 C710.87809849 690.74488847 713.22713288 693.09376913 715.57756233 695.44126701 C718.20005753 698.06120838 720.81930158 700.68435873 723.43774414 703.30834961 C724.20417236 704.0727536 724.97060059 704.83715759 725.76025391 705.62472534 C729.8484577 709.72890302 733.76999247 713.92024407 737.54164791 718.31791019 C739.39469693 720.45525062 741.35787786 722.45515583 743.375 724.4375 C744.13296875 725.18773437 744.8909375 725.93796875 745.671875 726.7109375 C746.82429688 727.84402344 746.82429688 727.84402344 748 729 C753.0212239 733.93697518 757.88586476 738.91219575 762.4765625 744.25390625 C764.38602312 746.44244189 766.41590627 748.47811803 768.5 750.5 C771.80263851 753.76384913 774.90050648 757.1141419 777.921875 760.63671875 C780.71845612 763.81704127 783.60992784 766.90474452 786.5 770 C791.09099539 774.92615159 795.62093657 779.8834101 800 785 C800.8996035 786.04569001 801.79935733 787.09125069 802.69921875 788.13671875 C805.29283657 791.15302526 807.87912466 794.17551893 810.46240234 797.20068359 C811.45379386 798.3608226 812.44622904 799.52007095 813.43994141 800.67822266 C820.53001028 808.94209459 827.34589635 817.3818301 834 826 C834.62100586 826.80034668 835.24201172 827.60069336 835.88183594 828.42529297 C866.68169764 868.16680944 866.68169764 868.16680944 865 891 C862.46326069 903.81415742 856.39124807 915.00018688 845.68359375 922.65625 C834.65780555 929.69618989 824.17645001 930.43944742 811.36685181 930.38768005 C809.68130336 930.39185735 807.99575772 930.39733704 806.31021726 930.40399987 C801.69672133 930.41842242 797.08340454 930.41421964 792.46989894 930.40683305 C787.48667025 930.40209549 782.50347998 930.4146168 777.52026367 930.42485046 C767.76251639 930.4420353 758.00483352 930.4428787 748.24707504 930.43763756 C740.30983513 930.43359216 732.37261422 930.43504384 724.43537521 930.44038582 C723.30460646 930.44113424 722.17383771 930.44188266 721.00880324 930.44265376 C718.7113632 930.4441853 716.41392317 930.44572365 714.11648314 930.44726873 C692.57456356 930.46099396 671.03268031 930.4555571 649.49076156 930.44408352 C629.81429932 930.43416274 610.13793127 930.44707179 590.46148355 930.47101771 C570.23383864 930.4954478 550.00623752 930.50500626 529.77857816 930.49836498 C518.43211656 930.49487995 507.08572728 930.49705682 495.73927689 930.51461601 C486.07456983 930.52938741 476.40998594 930.52990977 466.74528117 930.5125451 C461.82125895 930.50407108 456.89745629 930.50179651 451.97344589 930.51719666 C414.03526155 930.62747595 414.03526155 930.62747595 398 926 C396.43397506 925.55438548 396.43397506 925.55438548 394.83631325 925.09976864 C392.54859244 924.40940246 390.34734293 923.62595234 388.125 922.75 C387.35019287 922.45335449 386.57538574 922.15670898 385.77709961 921.85107422 C353.54356126 909.09064924 330.60258336 883.26172488 316.86499023 852.06985474 C314.62236339 846.70342214 312.87864137 841.15501359 311.08764648 835.62564087 C291.8154688 776.45150538 259.90844398 720.27267481 217.4140625 674.625 C215.52702615 672.57307698 213.70744322 670.49473243 211.89453125 668.37890625 C207.64462592 663.50603201 203.09178649 658.94127068 198.51196289 654.3815918 C197.06475615 652.93974779 195.62297974 651.49262884 194.18164062 650.04492188 C188.95849359 644.81763442 183.63948707 639.77616584 178 635 C176.94381157 634.08746969 175.88781112 633.17472174 174.83203125 632.26171875 C167.40308472 625.92837365 159.82779202 619.83518687 152 614 C151.02450195 613.26958496 151.02450195 613.26958496 150.02929688 612.52441406 C113.95039187 585.62645337 74.23776716 564.46075266 32 549 C30.91847656 548.60329102 29.83695313 548.20658203 28.72265625 547.79785156 C-47.4082433 520.27537788 -130.20046571 515.00561922 -322 566 C-357.80351248 582.80127287 -390.68943646 604.66579764 -421 630 C-421.5480127 630.45632813 -422.09602539 630.91265625 -422.66064453 631.3828125 C-430.00414057 637.51503135 -436.98523593 643.82882332 -443.671875 650.671875 C-445.47713746 652.47713746 -447.25201294 654.11014179 -449.25 655.6875 C-452.24072311 658.20242625 -454.63034429 660.93720294 -457.15625 663.90625 C-458.98102087 665.97844743 -460.89188746 667.89234341 -462.875 669.8125 C-466.76811482 673.6533081 -470.18316784 677.77872559 -473.6015625 682.04296875 C-475.63567492 684.55082396 -477.7199416 687.00108181 -479.83764648 689.43823242 C-498.65789428 711.21307871 -514.2464362 735.78052084 -528 761 C-528.4959668 761.90685547 -528.99193359 762.81371094 -529.50292969 763.74804688 C-542.79473627 788.21453221 -552.93271087 813.46488495 -561.95117188 839.77490234 C-574.01158602 874.83471429 -595.05692513 902.21922051 -628.57421875 918.9609375 C-632.97547946 921.05268377 -637.4519741 922.80199705 -642.0625 924.375 C-643.05008301 924.7148291 -643.05008301 924.7148291 -644.05761719 925.06152344 C-657.41292915 929.31297507 -670.55940373 930.4441189 -684.45320129 930.38768005 C-686.15446706 930.39186352 -687.85573004 930.39734655 -689.55698794 930.40399987 C-694.18570517 930.41833924 -698.81424261 930.41424623 -703.4429692 930.40683305 C-708.45250508 930.4020752 -713.4620035 930.4146339 -718.4715271 930.42485046 C-728.26553758 930.44198992 -738.05948377 930.44288897 -747.85350535 930.43763756 C-755.81451582 930.43358732 -763.77550737 930.43504952 -771.73651695 930.44038582 C-773.43951147 930.44150845 -773.43951147 930.44150845 -775.17690992 930.44265376 C-777.48362934 930.44418531 -779.79034875 930.44572365 -782.09706815 930.44726873 C-803.694538 930.46097497 -825.29197155 930.45556818 -846.88944056 930.44408352 C-866.63949973 930.43414227 -886.38946533 930.44711056 -906.13951007 930.47101771 C-926.44075224 930.49540632 -946.74195082 930.50501783 -967.04320735 930.49836498 C-978.43232903 930.49487364 -989.82137868 930.49709989 -1001.21048927 930.51461601 C-1010.90019466 930.52933451 -1020.58977722 930.52997741 -1030.2794802 930.5125451 C-1035.22065626 930.50403195 -1040.16161285 930.50189366 -1045.10277748 930.51719666 C-1049.62960964 930.53104291 -1054.15603424 930.52628141 -1058.68284281 930.50695742 C-1060.31646483 930.5031971 -1061.9501195 930.5061203 -1063.58371244 930.51656907 C-1076.30520539 930.5921252 -1086.47526016 928.52099772 -1097 921 C-1098.010625 920.29875 -1099.02125 919.5975 -1100.0625 918.875 C-1108.33960414 911.65790647 -1113.64539289 900.1228703 -1114.4140625 889.31640625 C-1115.21642129 870.41319373 -1108.04930981 858.63929535 -1097 844 C-1096.02401855 842.69724121 -1096.02401855 842.69724121 -1095.02832031 841.36816406 C-1085.40406394 828.53734917 -1075.47415025 816.04520527 -1065.08032227 803.83178711 C-1062.2069487 800.45055215 -1059.4008865 797.02473206 -1056.625 793.5625 C-1051.99956072 787.87221139 -1047.01103413 782.55500405 -1041.99609375 777.2109375 C-1039.76085267 774.82640515 -1037.5729972 772.4123794 -1035.4375 769.9375 C-1030.98147512 764.78249083 -1026.32587009 759.80910524 -1021.68847656 754.81787109 C-1020.53583082 753.57689363 -1019.3841811 752.33499048 -1018.23339844 751.09228516 C-1005.60825804 737.45891076 -1005.60825804 737.45891076 -999.16015625 731.22265625 C-997.39738544 729.40888303 -995.77622458 727.57044147 -994.14109802 725.64527893 C-988.90092005 719.64476908 -983.217465 714.0777607 -977.58227539 708.45288086 C-976.33294877 707.20219705 -975.08383451 705.95130108 -973.83491516 704.70021057 C-970.46119609 701.32195494 -967.08434833 697.94684338 -963.70677114 694.57244563 C-960.16160808 691.02982575 -956.61889851 687.48475363 -953.07579041 683.94007874 C-947.12694948 677.98942182 -941.17601086 672.04086884 -935.22387695 666.09350586 C-928.35613243 659.23120285 -921.49199762 652.36530499 -914.62972647 645.49752897 C-908.7230751 639.58633022 -902.81446543 633.67709421 -896.90423387 627.76947504 C-893.3807756 624.2475706 -889.85798408 620.72500636 -886.33696175 617.20066643 C-883.02563539 613.88643772 -879.71184608 610.57469099 -876.39619255 607.26479149 C-875.18442353 606.05433742 -873.97349109 604.84304516 -872.76348877 603.63082504 C-867.19922895 598.05731265 -861.63708047 592.54025765 -855.64511776 587.42038822 C-853.35490317 585.44302593 -851.2194132 583.33180478 -849.08789062 581.18554688 C-848.21338257 580.3077356 -847.33887451 579.42992432 -846.43786621 578.5255127 C-845.51993286 577.59928101 -844.60199951 576.67304932 -843.65625 575.71875 C-842.67823581 574.73631622 -841.69991749 573.75418512 -840.72131348 572.77233887 C-837.64468605 569.68439429 -834.57203564 566.59251186 -831.5 563.5 C-827.93446097 559.91069537 -824.36722072 556.32311492 -820.79570007 552.73976135 C-819.38241371 551.32008843 -817.97222889 549.89733001 -816.56213379 548.4744873 C-812.87271732 544.77113504 -809.20097009 541.10783429 -805.21875 537.71875 C-799.5498285 532.85099153 -794.36445218 527.47424989 -789.10173035 522.17689514 C-787.11862966 520.18088476 -785.13229426 518.18814294 -783.1451416 516.19616699 C-778.9272615 511.96692895 -774.71333448 507.73376597 -770.5 503.5 C-765.61273167 498.5890321 -760.72380286 493.67974109 -755.83061218 488.77467346 C-753.88551955 486.82315749 -751.94349334 484.86862615 -750.00158691 482.91394043 C-748.79482798 481.70354485 -747.5879261 480.49329176 -746.38085938 479.28320312 C-745.85179489 478.74897232 -745.32273041 478.21474152 -744.77763367 477.6643219 C-742.01109059 474.89739843 -739.17989596 472.263253 -736.21327209 469.71128845 C-731.32269396 465.47366558 -726.77552168 460.91546611 -722.20678711 456.33618164 C-721.25166545 455.38241828 -720.2963319 454.42886707 -719.34080505 453.47550964 C-716.76831468 450.90754257 -714.19895477 448.33646531 -711.6303184 445.76464391 C-708.92851845 443.0602938 -706.22425851 440.3584053 -703.520401 437.65611267 C-698.98209824 433.11962389 -694.44589571 428.58104304 -689.91088867 424.04125977 C-684.6845319 418.80946187 -679.45458272 413.58127589 -674.22275347 408.35495096 C-669.71281391 403.84956456 -665.20484496 399.34221339 -660.69848639 394.83324522 C-658.01495031 392.14815845 -655.33076307 389.46373198 -652.64478874 386.78108406 C-650.11849951 384.25770565 -647.59471123 381.73185118 -645.07274818 379.20414925 C-643.71724601 377.84671663 -642.35931291 376.4917128 -641.00128174 375.1368103 C-636.7052489 370.82605178 -632.57536052 366.44492603 -628.60680485 361.83153439 C-626.09755031 358.97133268 -623.41928358 356.29549272 -620.71679688 353.61914062 C-620.13205093 353.03585495 -619.54730499 352.45256927 -618.94483948 351.85160828 C-617.68998179 350.60052081 -616.43397164 349.35058836 -615.17689514 348.10173035 C-613.18088476 346.11862966 -611.18814294 344.13229426 -609.19616699 342.1451416 C-604.25100049 337.21325572 -599.30037531 332.28686113 -594.34991455 327.36029053 C-590.15585394 323.18604645 -585.96390637 319.00970144 -581.77467346 314.83061218 C-579.82315749 312.88551955 -577.86862615 310.94349334 -575.91394043 309.00158691 C-570.6705413 303.77959879 -565.50810499 298.57284846 -560.70910645 292.93395996 C-556.92007754 288.64643871 -552.78111489 284.68221915 -548.71875 280.65625 C-547.73631622 279.67823581 -546.75418512 278.69991749 -545.77233887 277.72131348 C-542.16280682 274.12501016 -538.54779294 270.53423404 -534.93292236 266.94329834 C-531.8661925 263.89644421 -528.80162086 260.84744874 -525.73976135 257.79570007 C-524.32008843 256.38241371 -522.89733001 254.97222889 -521.4744873 253.56213379 C-520.59667603 252.68762573 -519.71886475 251.81311768 -518.81445312 250.91210938 C-518.05169067 250.15458374 -517.28892822 249.39705811 -516.50305176 248.61657715 C-514.58295613 246.60939598 -512.77702704 244.58592424 -510.97520447 242.47718811 C-505.80080911 236.5248538 -500.1610942 231.02149303 -494.58227539 225.45288086 C-493.33294877 224.20219705 -492.08383451 222.95130108 -490.83491516 221.70021057 C-487.46119609 218.32195494 -484.08434833 214.94684338 -480.70677114 211.57244563 C-477.16160808 208.02982575 -473.61889851 204.48475363 -470.07579041 200.94007874 C-464.12694948 194.98942182 -458.17601086 189.04086884 -452.22387695 183.09350586 C-445.35613243 176.23120285 -438.49199762 169.36530499 -431.62972647 162.49752897 C-425.7230751 156.58633022 -419.81446543 150.67709421 -413.90423387 144.76947504 C-410.3807756 141.2475706 -406.85798408 137.72500636 -403.33696175 134.20066643 C-400.02563539 130.88643772 -396.71184608 127.57469099 -393.39619255 124.26479149 C-392.18442353 123.05433742 -390.97349109 121.84304516 -389.76348877 120.63082504 C-384.19168497 115.04975612 -378.63800403 109.49414063 -372.61406612 104.39376163 C-369.92981364 102.07588378 -367.47202421 99.53993696 -365 97 C-361.1872329 93.08248655 -357.23629747 89.4242806 -353.1015625 85.84765625 C-349.47755807 82.66149622 -345.99658097 79.32461797 -342.5 76 C-337.67694848 71.41414774 -332.81027752 66.91009541 -327.78173828 62.54980469 C-325.55134958 60.60975159 -323.36921987 58.61949697 -321.1875 56.625 C-316.89040173 52.74649273 -312.46241246 49.07134032 -307.9609375 45.43359375 C-305.30190937 43.24813923 -302.6987523 41.0152899 -300.10424805 38.75463867 C-292.44996974 32.09456283 -284.49401842 25.9039859 -276.38354492 19.81152344 C-274.61026023 18.46380527 -272.84928855 17.09985526 -271.0949707 15.72753906 C-263.06778125 9.44900054 -254.80546256 3.62983448 -246.3125 -2 C-245.33129181 -2.65264832 -245.33129181 -2.65264832 -244.33026123 -3.31848145 C-234.77472864 -9.66284535 -225.15937408 -15.74731751 -214.94873047 -20.99707031 C-212.98712772 -22.00662482 -211.04252874 -23.04458078 -209.09765625 -24.0859375 C-137.0399209 -62.05135681 -64.27587068 -44.77146854 0 0 Z " fill="#EF3B3A" transform="translate(1167,65)"/>
<path d="M0 0 C4.19134923 1.51116673 6.05210875 4.51251392 8.4375 8.0625 C9.32033593 9.33642775 10.20588146 10.60848087 11.09375 11.87890625 C11.56296875 12.55066895 12.0321875 13.22243164 12.515625 13.91455078 C17.1460381 20.41997655 22.11214471 26.68739973 27 33 C27.48114258 33.62438965 27.96228516 34.2487793 28.45800781 34.89208984 C34.00601624 42.08661654 39.71520463 49.10115433 45.66699219 55.96606445 C48.62538773 59.37970824 51.4971037 62.84122866 54.3125 66.375 C58.73145299 71.82423711 63.50321623 76.90887297 68.33325195 81.99169922 C71.60788128 85.43780036 74.819602 88.9195188 77.96484375 92.484375 C84.02877848 99.24829282 90.48001838 105.62950198 96.91137695 112.04174805 C99.06512522 114.19011866 101.21345226 116.34380694 103.36132812 118.49804688 C104.75228354 119.88834168 106.14354903 121.27832636 107.53515625 122.66796875 C108.16559341 123.30043015 108.79603058 123.93289154 109.4455719 124.58451843 C113.23738725 128.35677208 117.14235544 131.94482047 121.19619751 135.43431091 C123.96985238 137.8418257 126.63414149 140.36271831 129.3125 142.875 C134.08276805 147.31340532 138.97846787 151.51470097 144.0625 155.59375 C147.56892212 158.46603195 150.96774004 161.4490239 154.375 164.4375 C160.41424047 169.70709265 166.60974788 174.68903106 173.01953125 179.50537109 C175.38579462 181.29115319 177.73990022 183.09241902 180.09375 184.89453125 C192.56369431 194.45880429 192.56369431 194.45880429 205.33203125 203.6171875 C205.88246094 204.07351563 206.43289063 204.52984375 207 205 C207 205.66 207 206.32 207 207 C204.57567752 208.82898253 202.1378705 210.54978739 199.625 212.25 C190.12711845 218.808325 181.04334999 225.833007 172 233 C170.53046875 234.16208984 170.53046875 234.16208984 169.03125 235.34765625 C166.67810557 237.22049113 164.33621163 239.10610038 162 241 C161.15824219 241.67933594 160.31648438 242.35867188 159.44921875 243.05859375 C148.56750774 251.8930943 137.96899701 261.01446698 127.68359375 270.53515625 C125.3830635 272.64816148 123.05340817 274.71105034 120.6875 276.75 C117.59980188 279.42388291 114.72620879 282.24939908 111.86767578 285.16479492 C110.09590307 286.90576427 108.27000067 288.51945893 106.37890625 290.12890625 C101.51937176 294.35570632 96.97914001 298.87411232 92.4375 303.4375 C91.62603516 304.24509766 90.81457031 305.05269531 89.97851562 305.88476562 C85.66423296 310.20601242 81.49937377 314.59361603 77.54125977 319.24438477 C75.93160897 321.07790273 74.2416399 322.79206432 72.5 324.5 C68.78799513 328.16294754 65.39873131 332.04726303 62 336 C61.01881925 337.12941915 60.03699288 338.2582776 59.0546875 339.38671875 C56.23825486 342.62353977 53.43022555 345.86749913 50.62695312 349.11572266 C49.60092321 350.30403282 48.57373714 351.49134662 47.54492188 352.67724609 C40.85227407 360.40044742 34.56817873 368.37846261 28.40234375 376.52734375 C25.49411538 380.36694895 22.53177706 384.16129321 19.55639648 387.94897461 C13.40683746 395.78241072 7.53193345 403.71673457 2 412 C-2.36780585 407.9303654 -5.69999032 403.43726559 -9.125 398.5625 C-14.86037013 390.51641875 -20.80266289 382.69404454 -27 375 C-27.7734375 374.03731201 -27.7734375 374.03731201 -28.5625 373.05517578 C-38.09049588 361.21102946 -47.74605412 349.49324713 -57.97265625 338.2421875 C-59.73967199 336.28791576 -61.46913529 334.30940263 -63.1875 332.3125 C-73.67409077 320.31630805 -84.86481749 308.97252398 -96.14306641 297.7265625 C-98.39734171 295.47771206 -100.64613376 293.22347552 -102.89453125 290.96875 C-104.3538457 289.51009548 -105.81346985 288.05175073 -107.2734375 286.59375 C-107.93193695 285.93322632 -108.5904364 285.27270264 -109.26889038 284.59216309 C-113.12983559 280.75038634 -117.09864548 277.08870842 -121.22676086 273.53512573 C-123.81538428 271.29410683 -126.30709165 268.95870904 -128.8125 266.625 C-133.43780953 262.35160029 -138.20081901 258.31116271 -143.109375 254.36328125 C-145.74685707 252.20696145 -148.32220889 249.99840112 -150.88964844 247.76025391 C-159.29973706 240.44106311 -168.08422336 233.68821893 -177 227 C-178.7487074 225.68490844 -180.49740499 224.36980384 -182.24609375 223.0546875 C-186.40662055 219.92879908 -190.57146392 216.80873799 -194.73876953 213.69189453 C-198.16146217 211.13097249 -201.58086814 208.56567323 -205 206 C-201.84511572 202.62141977 -198.34392506 199.99664196 -194.5625 197.375 C-188.12721964 192.84388275 -181.85775315 188.13789308 -175.65625 183.29296875 C-173.951184 181.96189128 -172.24136821 180.63707817 -170.53125 179.3125 C-164.12898692 174.33631242 -157.8443507 169.2502377 -151.68139648 163.98022461 C-148.353772 161.13499673 -144.97980016 158.36283697 -141.5625 155.625 C-135.87859189 151.00474721 -130.56675486 146.02293689 -125.23046875 141.01171875 C-122.7424425 138.6789695 -120.2130907 136.40949536 -117.625 134.1875 C-114.32778573 131.34628345 -111.27259925 128.31804922 -108.25 125.1875 C-106.30153566 123.29315967 -104.31018518 121.52049791 -102.25390625 119.74609375 C-97.96893007 116.02265879 -93.93864801 112.08693306 -89.9375 108.0625 C-89.26912109 107.39798828 -88.60074219 106.73347656 -87.91210938 106.04882812 C-83.95081608 102.07983553 -80.19265183 97.99282072 -76.52954102 93.74780273 C-74.77067939 91.73795591 -72.92105369 89.85481046 -71 88 C-67.78565269 84.8288397 -64.78249037 81.54417247 -61.83984375 78.12109375 C-59.80491181 75.77508942 -57.71709033 73.4826355 -55.625 71.1875 C-51.72758553 66.86874343 -48.02699645 62.42237949 -44.37109375 57.8984375 C-42.30308789 55.37049623 -40.19335876 52.88569003 -38.06176758 50.41137695 C-32.3750393 43.7952136 -27.10321715 36.92897341 -21.9140625 29.91796875 C-19.2659226 26.34079496 -16.54845111 22.82264539 -13.8125 19.3125 C-8.95975989 13.03618459 -4.44908701 6.56616465 0 0 Z " fill="#EF3B3A" transform="translate(1041,840)"/>
</svg>
